# xmcd
#
# Track frame offsets:
#	150
#	17069
#	34257
#	53156
#	68847
#	84949
#	104925
#	122404
#	141900
#	159926
#	176315
#	195260
#	211620
#	230309
#	247642
#	265759
#	294187
#
# Disc length: 4117 seconds
#
# Revision: 1
# Processed by: cddbd v1.5.2PL0 Copyright (c) Steve Scherf et al.
# Submitted via: audiograbber 1.83.01
#
DISCID=d3101311
DTITLE=Chartbuster - esp 486-05 5053-02
DYEAR=1900
DGENRE=
TTITLE0=Messina, Jo Dee - My Give A Damn's Busted
TTITLE1=Evans, Sara - A Real Fine Place To Start
TTITLE2=Underwood, Carrie - Jesus Take The Wheel
TTITLE3=Rimes, LeAnn - Probably Wouldn't Be This Way
TTITLE4=Lambert, Miranda - Me And Charlie Talking
TTITLE5=Wilson, Gretchen - Homewrecker
TTITLE6=Sugarland - Stand Back  up
TTITLE7=Yearwood, Trisha - Georgia Rain
TTITLE8=Trick Pony - Ain't Wastin' Good Whiskey On You
TTITLE9=Lambert, Miranda - Kerosene
TTITLE10=Britt, Catherine and Elton, John - Where We Both Say Goodbye
TTITLE11=Dotson, Amber - I'll Try Anything
TTITLE12=Little Big Town - Boondocks
TTITLE13=O'Neal, Jamie - Somebody's Hero
TTITLE14=Hill, Faith - Like We Never Loved At All
TTITLE15=McEntire, Reba - You're Gonna Be
TTITLE16=Elam, Katrina - I Want A Cowboy
EXTD=
EXTT0=
EXTT1=
EXTT2=
EXTT3=
EXTT4=
EXTT5=
EXTT6=
EXTT7=
EXTT8=
EXTT9=
EXTT10=
EXTT11=
EXTT12=
EXTT13=
EXTT14=
EXTT15=
EXTT16=
PLAYORDER=
